<svg width="55" height="105" viewBox="0 0 55 105" xmlns="http://www.w3.org/2000/svg">
  <!-- Mug body -->
  <rect x="12" y="40" width="30" height="45" rx="4" fill="#ffffff" stroke="#e5e7eb" stroke-width="1"/>
  
  <!-- Coffee surface -->
  <ellipse cx="27" cy="45" rx="13" ry="3" fill="#8b4513"/>
  
  <!-- Handle -->
  <ellipse cx="45" cy="62" rx="4" ry="12" fill="none" stroke="#e5e7eb" stroke-width="2"/>
  
  <!-- Steam -->
  <path d="M 20 35 C 18 30, 22 25, 20 20 C 18 15, 22 10, 20 5" stroke="#d1d5db" stroke-width="1.5" fill="none"/>
  <path d="M 27 37 C 25 32, 29 27, 27 22 C 25 17, 29 12, 27 7" stroke="#d1d5db" stroke-width="1.5" fill="none"/>
  <path d="M 34 35 C 36 30, 32 25, 34 20 C 36 15, 32 10, 34 5" stroke="#d1d5db" stroke-width="1.5" fill="none"/>
  
  <!-- Mug base -->
  <rect x="14" y="80" width="26" height="4" rx="2" fill="#f3f4f6"/>
  
  <!-- Saucer -->
  <ellipse cx="27" cy="95" rx="20" ry="4" fill="#f9fafb" stroke="#e5e7eb" stroke-width="1"/>
</svg>