<svg width="55" height="105" viewBox="0 0 55 105" xmlns="http://www.w3.org/2000/svg">
  <!-- Head -->
  <ellipse cx="27" cy="18" rx="8" ry="10" fill="#4a5568"/>
  
  <!-- Body -->
  <rect x="20" y="25" width="14" height="25" rx="3" fill="#4a5568"/>
  
  <!-- Left arm (thinking pose) -->
  <rect x="12" y="30" width="12" height="4" rx="2" fill="#4a5568"/>
  <rect x="10" y="28" width="4" height="8" rx="2" fill="#4a5568"/>
  
  <!-- Right arm -->
  <rect x="31" y="32" width="10" height="4" rx="2" fill="#4a5568"/>
  
  <!-- Legs -->
  <rect x="22" y="48" width="4" height="20" rx="2" fill="#4a5568"/>
  <rect x="28" y="48" width="4" height="20" rx="2" fill="#4a5568"/>
  
  <!-- Base/seat -->
  <rect x="15" y="68" width="24" height="8" rx="4" fill="#718096"/>
  
  <!-- Thinking elements -->
  <circle cx="40" cy="15" r="2" fill="#e2e8f0" opacity="0.8"/>
  <circle cx="45" cy="12" r="1.5" fill="#e2e8f0" opacity="0.6"/>
  <circle cx="48" cy="8" r="1" fill="#e2e8f0" opacity="0.4"/>
  
  <!-- Research symbols -->
  <rect x="5" y="85" width="8" height="1" fill="#4299e1"/>
  <rect x="5" y="88" width="12" height="1" fill="#4299e1"/>
  <rect x="5" y="91" width="6" height="1" fill="#4299e1"/>
  
  <rect x="35" y="85" width="10" height="1" fill="#4299e1"/>
  <rect x="35" y="88" width="8" height="1" fill="#4299e1"/>
  <rect x="35" y="91" width="12" height="1" fill="#4299e1"/>
</svg>